# xmcd
#
# Track frame offsets:
#	150
#	11356
#	22387
#	35627
#	48840
#	62804
#	76500
#	88274
#	100752
#	112407
#	124409
#	137064
#	149595
#	161581
#	175900
#	187946
#	198077
#	208726
#	222225
#	235657
#	248914
#	259709
#	273829
#	287312
#
# Disc length: 3991 seconds
#
# Revision: 0
# Processed by: cddbd v1.5.2PL0 Copyright (c) Steve Scherf et al.
# Submitted via: EZCDAudioConverter 2.2.2.1
#
DISCID=5b0f9518
DTITLE=Daisy Mae and Old Brother Charlie - The Pure Hillbilly Sound Of
DYEAR=1900
DGENRE=Country
TTITLE0=Cotton Lisle Stockings And A Two Dollar Dress (1952)
TTITLE1=The Boy Across The Street (1952)
TTITLE2=I Dreamed Of An Old Love Affair (1951)
TTITLE3=Fingerprints Upon My Heart (1951)
TTITLE4=Dogwood Blossom Time (1948)
TTITLE5=I'm Hongry (1948)
TTITLE6=You Got Stuck (1949)
TTITLE7=Sparkling Brown Eyes (1949)
TTITLE8=You'll Have To Talk It Over With My Heart (1949)
TTITLE9=Too Late To Start All Over (1949)
TTITLE10=Unloved And Unclaimed (1948)
TTITLE11=New River Train (1949)
TTITLE12=Our Baby's Gone To Jesus (1948)
TTITLE13=Talking Hands (1951)
TTITLE14=I Had A Visit From Heaven (1951)
TTITLE15=I'd Rather Be An Old Man's Darlin' (1952)
TTITLE16=That's Why You're My Sweetheart (1952)
TTITLE17=Looking Through The Windows Of Heaven (1952)
TTITLE18=Grace For Every Need (1952)
TTITLE19=God Laid His Hand On My Heart (1952)
TTITLE20=Thank God I'll Be No Stranger (1952)
TTITLE21=Two Old Pals (1949)
TTITLE22=Sweeter Than The Flowers (1948)
TTITLE23=Sweeter Than The Flowers No.2 (1948)
EXTD=
EXTT0=
EXTT1=
EXTT2=
EXTT3=
EXTT4=
EXTT5=
EXTT6=
EXTT7=
EXTT8=
EXTT9=
EXTT10=
EXTT11=
EXTT12=
EXTT13=
EXTT14=
EXTT15=
EXTT16=
EXTT17=
EXTT18=
EXTT19=
EXTT20=
EXTT21=
EXTT22=
EXTT23=
PLAYORDER=
